<svg xmlns="http://www.w3.org/2000/svg" height="1.5rem" fill="white" viewBox="0 0 581.031 581.031">
  <defs><style></style></defs>
  <path
    d="M440.96 517.547l74.82 21.211a21.59 21.59 0 0116.71 25.407 21.3 21.3 0 01-25.41 16.394l-122.79-34.806c-141.1 51.384-298.27-18.839-354.36-160.127-57.08-144.219 12.61-307.72 155.78-365.483 143.29-57.626 305.87 12.57 363.12 156.8 50.45 127.062 2.29 269.181-107.87 340.604zM360.17 115.2c-23.49-59.138-86.66-91.844-148.12-76.695q-8.385 2.709-16.66 6.03C68.71 95.535 4.92 238.351 51.1 367.565c42.52 118.923 164.12 186.981 284.51 164.392l-22.87-6.485a126.05 126.05 0 01-20.2-5.7 22.48 22.48 0 01-2.84-1.08 127.268 127.268 0 01-74.06-79.719c-20.38-63.9 11.83-132.775 73.74-157.695A126.1 126.1 0 00360.17 115.2zm9.31 271.475a35.633 35.633 0 10-8.19 38.856 35.94 35.94 0 008.19-38.857zm-127.65-188.3a35.528 35.528 0 01-32.53-22.484 35.817 35.817 0 0119.8-46.457 35.364 35.364 0 0138.61 8.236 35.947 35.947 0 017.21 39.053 35.53 35.53 0 01-33.09 21.646z"
    fill-rule="evenodd" opacity="0.8"
  ></path>
</svg>
