<svg xmlns="http://www.w3.org/2000/svg" class="fill-current h-6 w-24 sm:h-8 sm:w-32" viewBox="0 0 142 39" height="2rem" fill="white">
  <path
    d="M751.823,93.622a3.815,3.815,0,0,1-3.213-1.516h-0.09V97.28a0.985,0.985,0,1,1-1.963,0v-14.9a0.985,0.985,0,1,1,1.963,0v0.624h0.09a3.2,3.2,0,0,1,3.213-1.695q4.821,0.357,5.178,6.244Q756.642,93.356,751.823,93.622ZM751.645,83.1q-3.126.18-3.3,4.46,0.179,4.282,3.3,4.461,3.213-.178,3.392-4.461Q754.857,83.274,751.645,83.1ZM739.619,93.622a0.8,0.8,0,0,1-.982-0.8V91.927a3.77,3.77,0,0,1-3.3,1.695q-5-.178-5.355-6.066,0.354-5.887,5.355-6.244a4.7,4.7,0,0,1,3.3,1.606V82.293a0.92,0.92,0,0,1,.982-0.981,0.884,0.884,0,0,1,.893.981V92.82A0.806,0.806,0,0,1,739.619,93.622ZM735.334,83.1q-3.213.18-3.392,4.46,0.178,4.282,3.392,4.461,3.123-.088,3.3-4.461Q738.457,83.187,735.334,83.1ZM722.525,92.73a1.2,1.2,0,0,1-2.321,0l-2.589-8.207-2.589,8.207a1.2,1.2,0,0,1-2.32,0l-3.392-9.724a4.086,4.086,0,0,1-.089-0.8,0.914,0.914,0,0,1,.893-0.892,1.267,1.267,0,0,1,1.16,1.071l2.588,8.3,2.589-8.029q0.356-1.426,1.16-1.338,0.8-.088,1.161,1.338l2.589,8.029,2.588-8.3a1.266,1.266,0,0,1,1.161-1.071,0.915,0.915,0,0,1,.892.892,4.163,4.163,0,0,1-.089.8ZM705.772,88.82c-0.162,3.128-2.007,4.9-5.458,5.023-2.144-.093-3.536-0.656-4.183-1.363a1.2,1.2,0,0,1-.428-1.055,1.1,1.1,0,0,1,1.953-.41,4.384,4.384,0,0,0,2.636.961,3.232,3.232,0,0,0,3.278-3.414c-0.106-1.364-1-2.016-3.256-2.789-2.917-1.011-4.275-2.443-4.321-4.31a3.1,3.1,0,0,1,.043-0.717,4.848,4.848,0,0,1,4.943-3.867,6.2,6.2,0,0,1,3.5,1.119,0.911,0.911,0,0,1,.511.821,0.067,0.067,0,0,0,0,.014c0,0.01.006,0.019,0.008,0.029a0.843,0.843,0,0,1-.893.892c-0.019,0-.038,0-0.058,0l-0.039,0a1.039,1.039,0,0,1-.771-0.341c1.012,0.665-.3-0.53-2.346-0.53a2.666,2.666,0,0,0-2.782,2.413c0,1.07,1.059,1.942,3.188,2.693C704.331,85.059,705.77,86.8,705.772,88.82Zm-16.056-9.114a1.249,1.249,0,1,1,1.25-1.249A1.219,1.219,0,0,1,689.716,79.706Zm-7.3,13.889-2.527-1.543a8.222,8.222,0,1,1,1.706-1.624l1.932,1.179a1.143,1.143,0,0,1,.429,1.552A1.127,1.127,0,0,1,682.417,93.6Zm-7.272-14.51a6.261,6.261,0,1,0,2.872,11.824l-2.043-1.247a1.144,1.144,0,0,1-.429-1.552,1.127,1.127,0,0,1,1.54-.436l2.827,1.725A6.263,6.263,0,0,0,675.145,79.085Zm-26.187,21.08a1.448,1.448,0,0,1,1.122,1.7,1.429,1.429,0,0,1-1.706,1.1l-8.245-2.336a18.721,18.721,0,0,1-23.79-10.749A18.936,18.936,0,0,1,626.8,65.352a18.72,18.72,0,0,1,24.38,10.525,18.944,18.944,0,0,1-7.242,22.864ZM638.51,71.733a8.514,8.514,0,0,0-9.945-5.148q-0.562.182-1.118,0.4a17.115,17.115,0,0,0,9.414,32.718l-1.535-.435a8.494,8.494,0,0,1-1.356-.382,1.52,1.52,0,0,1-.191-0.073,8.6,8.6,0,0,1-.021-15.937A8.463,8.463,0,0,0,638.51,71.733Zm0.625,18.223a2.392,2.392,0,1,0-.549,2.608A2.411,2.411,0,0,0,639.135,89.956Zm-8.57-12.64a2.4,2.4,0,1,1,2.221-1.453A2.386,2.386,0,0,1,630.565,77.316Zm59.151,4a0.909,0.909,0,0,1,.982,1.071V92.73a0.987,0.987,0,0,1-1.964,0V82.382A0.909,0.909,0,0,1,689.716,81.312Z" 
    transform="translate(-615 -64)"
  />
</svg>
